<svg width="15" height="15" viewBox="0 0 15 15" fill="none" xmlns="http://www.w3.org/2000/svg">
<line x1="7.5" y1="1" x2="7.5" y2="14" stroke="white" stroke-opacity="0.3"/>
<line x1="1" y1="7.5" x2="14" y2="7.5" stroke="white" stroke-opacity="0.3"/>
<line x1="1.66366" y1="12.63" x2="12.6637" y2="2.63003" stroke="white" stroke-opacity="0.3"/>
<path d="M7.5 13.5C5.79984 11.8522 4.82117 11.3529 3 11.5C3.16966 9.7279 2.92289 8.84329 1.5 7.5C2.58841 5.94418 2.93867 4.95249 3 3C5.24758 3.01061 6.26179 2.63693 7.5 1C9.10508 2.56985 10.1986 2.95386 12.5 3C12.1949 5.2908 12.3268 6.35706 13.5 7.5C12.0539 8.68335 11.7736 9.61113 12.5 12C10.2347 11.776 9.09829 11.9956 7.5 13.5Z" stroke="white" stroke-opacity="0.3"/>
<line x1="2.33634" y1="2.63003" x2="13.3363" y2="12.63" stroke="white" stroke-opacity="0.3"/>
</svg>
