<svg width="43" height="39" viewBox="0 0 43 39" fill="none" xmlns="http://www.w3.org/2000/svg">
<path d="M1 34L20.3103 20M41 5L20.3103 20M20.3103 20L4 1L20 19.5M36 38L20 19.5M20 19.5L20.3103 1L20.1552 19.5M20 38L20.1552 19.5M20.1552 19.5H1L30 20.225L41 20.5" stroke="white" stroke-opacity="0.3"/>
<path d="M30.4999 20C30.4999 20 27 17.5 28.4999 14C23.5351 15.2236 21.4361 15.1715 20 12.5C18.5002 14.0054 17.3343 14.1894 15 14C15.9388 16.3452 15.7144 17.4854 14 19C15.483 20.8365 15.6062 21.93 14.5 24C17.3228 23.6208 18.4608 24.172 20 26C19.5319 23.7563 26.0212 24.9324 25 25.5C23.9788 26.0676 28.8048 19.1329 30.4999 20ZM32 11.5C25.9458 12.1326 23.1464 11.7343 20.5 8C17.6429 10.2201 15.8896 10.9932 12 10C12.7792 14.1296 12.745 16.2326 10.5 19C11.3586 22.1138 11.4103 23.8847 10.5 27C14.8343 27.3703 16.759 28.2478 19.5 31C22.7683 28.5793 24.8156 28.4862 28.4999 29.5C27.9145 25.2632 29.467 23.3415 34.5 20.5C32.2535 17.4447 31.6265 15.483 32 11.5ZM2.5 19C5.09455 23.0001 6.15379 25.3582 5 30.5C11.5644 30.8666 14.8575 31.9904 19.5 37C23.6641 33.5056 26.3533 32.5247 32.5 34.5C33.7359 27.4927 35.6866 24.5809 40.5 20.5C36.7188 16.1209 35.7796 13.428 37.5 8C29.8658 7.89903 25.8236 7.10077 20 1.5C16.1011 5.91799 13.1151 6.39491 6.5 4C6.92104 11.5801 6.36803 15.15 2.5 19Z" stroke="white" stroke-opacity="0.3"/>
</svg>
